solid OpenSCAD_Model
  facet normal -0.92388 -0.382683 0
    outer loop
      vertex 17.5 17 0
      vertex 16.7678 18.7678 2
      vertex 16.7678 18.7678 0
    endloop
  endfacet
  facet normal -0.92388 -0.382683 0
    outer loop
      vertex 16.7678 18.7678 2
      vertex 17.5 17 0
      vertex 17.5 17 2
    endloop
  endfacet
  facet normal 0.92388 0.382683 0
    outer loop
      vertex 13.2322 15.2322 2
      vertex 12.5 17 0
      vertex 12.5 17 2
    endloop
  endfacet
  facet normal 0.92388 0.382683 0
    outer loop
      vertex 12.5 17 0
      vertex 13.2322 15.2322 2
      vertex 13.2322 15.2322 0
    endloop
  endfacet
  facet normal 0.382683 0.92388 -0
    outer loop
      vertex 15 14.5 0
      vertex 13.2322 15.2322 2
      vertex 15 14.5 2
    endloop
  endfacet
  facet normal 0.382683 0.92388 0
    outer loop
      vertex 13.2322 15.2322 2
      vertex 15 14.5 0
      vertex 13.2322 15.2322 0
    endloop
  endfacet
  facet normal 0.382683 -0.92388 0
    outer loop
      vertex 13.2322 18.7678 0
      vertex 15 19.5 2
      vertex 13.2322 18.7678 2
    endloop
  endfacet
  facet normal 0.382683 -0.92388 0
    outer loop
      vertex 15 19.5 2
      vertex 13.2322 18.7678 0
      vertex 15 19.5 0
    endloop
  endfacet
  facet normal -0.382683 -0.92388 0
    outer loop
      vertex 15 19.5 0
      vertex 16.7678 18.7678 2
      vertex 15 19.5 2
    endloop
  endfacet
  facet normal -0.382683 -0.92388 -0
    outer loop
      vertex 16.7678 18.7678 2
      vertex 15 19.5 0
      vertex 16.7678 18.7678 0
    endloop
  endfacet
  facet normal 0.92388 -0.382683 0
    outer loop
      vertex 12.5 17 2
      vertex 13.2322 18.7678 0
      vertex 13.2322 18.7678 2
    endloop
  endfacet
  facet normal 0.92388 -0.382683 0
    outer loop
      vertex 13.2322 18.7678 0
      vertex 12.5 17 2
      vertex 12.5 17 0
    endloop
  endfacet
  facet normal -0.382683 0.92388 0
    outer loop
      vertex 16.7678 15.2322 0
      vertex 15 14.5 2
      vertex 16.7678 15.2322 2
    endloop
  endfacet
  facet normal -0.382683 0.92388 0
    outer loop
      vertex 15 14.5 2
      vertex 16.7678 15.2322 0
      vertex 15 14.5 0
    endloop
  endfacet
  facet normal -0.92388 0.382683 0
    outer loop
      vertex 16.7678 15.2322 0
      vertex 17.5 17 2
      vertex 17.5 17 0
    endloop
  endfacet
  facet normal -0.92388 0.382683 0
    outer loop
      vertex 17.5 17 2
      vertex 16.7678 15.2322 0
      vertex 16.7678 15.2322 2
    endloop
  endfacet
  facet normal -0.92388 -0.382683 0
    outer loop
      vertex 50 17 0
      vertex 49.2678 18.7678 2
      vertex 49.2678 18.7678 0
    endloop
  endfacet
  facet normal -0.92388 -0.382683 0
    outer loop
      vertex 49.2678 18.7678 2
      vertex 50 17 0
      vertex 50 17 2
    endloop
  endfacet
  facet normal 0.92388 0.382683 0
    outer loop
      vertex 45.7322 15.2322 2
      vertex 45 17 0
      vertex 45 17 2
    endloop
  endfacet
  facet normal 0.92388 0.382683 0
    outer loop
      vertex 45 17 0
      vertex 45.7322 15.2322 2
      vertex 45.7322 15.2322 0
    endloop
  endfacet
  facet normal 0.382683 -0.92388 0
    outer loop
      vertex 45.7322 18.7678 0
      vertex 47.5 19.5 2
      vertex 45.7322 18.7678 2
    endloop
  endfacet
  facet normal 0.382683 -0.92388 0
    outer loop
      vertex 47.5 19.5 2
      vertex 45.7322 18.7678 0
      vertex 47.5 19.5 0
    endloop
  endfacet
  facet normal -0.382683 -0.92388 0
    outer loop
      vertex 47.5 19.5 0
      vertex 49.2678 18.7678 2
      vertex 47.5 19.5 2
    endloop
  endfacet
  facet normal -0.382683 -0.92388 -0
    outer loop
      vertex 49.2678 18.7678 2
      vertex 47.5 19.5 0
      vertex 49.2678 18.7678 0
    endloop
  endfacet
  facet normal 0.92388 -0.382683 0
    outer loop
      vertex 45 17 2
      vertex 45.7322 18.7678 0
      vertex 45.7322 18.7678 2
    endloop
  endfacet
  facet normal 0.92388 -0.382683 0
    outer loop
      vertex 45.7322 18.7678 0
      vertex 45 17 2
      vertex 45 17 0
    endloop
  endfacet
  facet normal -0.92388 0.382683 0
    outer loop
      vertex 49.2678 15.2322 0
      vertex 50 17 2
      vertex 50 17 0
    endloop
  endfacet
  facet normal -0.92388 0.382683 0
    outer loop
      vertex 50 17 2
      vertex 49.2678 15.2322 0
      vertex 49.2678 15.2322 2
    endloop
  endfacet
  facet normal -0.382683 0.92388 0
    outer loop
      vertex 49.2678 15.2322 0
      vertex 47.5 14.5 2
      vertex 49.2678 15.2322 2
    endloop
  endfacet
  facet normal -0.382683 0.92388 0
    outer loop
      vertex 47.5 14.5 2
      vertex 49.2678 15.2322 0
      vertex 47.5 14.5 0
    endloop
  endfacet
  facet normal 0.382683 0.92388 -0
    outer loop
      vertex 47.5 14.5 0
      vertex 45.7322 15.2322 2
      vertex 47.5 14.5 2
    endloop
  endfacet
  facet normal 0.382683 0.92388 0
    outer loop
      vertex 45.7322 15.2322 2
      vertex 47.5 14.5 0
      vertex 45.7322 15.2322 0
    endloop
  endfacet
  facet normal -0.92388 -0.382683 0
    outer loop
      vertex 82.5 17 0
      vertex 81.7678 18.7678 2
      vertex 81.7678 18.7678 0
    endloop
  endfacet
  facet normal -0.92388 -0.382683 0
    outer loop
      vertex 81.7678 18.7678 2
      vertex 82.5 17 0
      vertex 82.5 17 2
    endloop
  endfacet
  facet normal 0.92388 0.382683 0
    outer loop
      vertex 78.2322 15.2322 2
      vertex 77.5 17 0
      vertex 77.5 17 2
    endloop
  endfacet
  facet normal 0.92388 0.382683 0
    outer loop
      vertex 77.5 17 0
      vertex 78.2322 15.2322 2
      vertex 78.2322 15.2322 0
    endloop
  endfacet
  facet normal 0.382683 -0.92388 0
    outer loop
      vertex 78.2322 18.7678 0
      vertex 80 19.5 2
      vertex 78.2322 18.7678 2
    endloop
  endfacet
  facet normal 0.382683 -0.92388 0
    outer loop
      vertex 80 19.5 2
      vertex 78.2322 18.7678 0
      vertex 80 19.5 0
    endloop
  endfacet
  facet normal -0.382683 -0.92388 0
    outer loop
      vertex 80 19.5 0
      vertex 81.7678 18.7678 2
      vertex 80 19.5 2
    endloop
  endfacet
  facet normal -0.382683 -0.92388 -0
    outer loop
      vertex 81.7678 18.7678 2
      vertex 80 19.5 0
      vertex 81.7678 18.7678 0
    endloop
  endfacet
  facet normal 0.92388 -0.382683 0
    outer loop
      vertex 77.5 17 2
      vertex 78.2322 18.7678 0
      vertex 78.2322 18.7678 2
    endloop
  endfacet
  facet normal 0.92388 -0.382683 0
    outer loop
      vertex 78.2322 18.7678 0
      vertex 77.5 17 2
      vertex 77.5 17 0
    endloop
  endfacet
  facet normal -0.92388 0.382683 0
    outer loop
      vertex 81.7678 15.2322 0
      vertex 82.5 17 2
      vertex 82.5 17 0
    endloop
  endfacet
  facet normal -0.92388 0.382683 0
    outer loop
      vertex 82.5 17 2
      vertex 81.7678 15.2322 0
      vertex 81.7678 15.2322 2
    endloop
  endfacet
  facet normal -0.382683 0.92388 0
    outer loop
      vertex 81.7678 15.2322 0
      vertex 80 14.5 2
      vertex 81.7678 15.2322 2
    endloop
  endfacet
  facet normal -0.382683 0.92388 0
    outer loop
      vertex 80 14.5 2
      vertex 81.7678 15.2322 0
      vertex 80 14.5 0
    endloop
  endfacet
  facet normal 0.382683 0.92388 -0
    outer loop
      vertex 80 14.5 0
      vertex 78.2322 15.2322 2
      vertex 80 14.5 2
    endloop
  endfacet
  facet normal 0.382683 0.92388 0
    outer loop
      vertex 78.2322 15.2322 2
      vertex 80 14.5 0
      vertex 78.2322 15.2322 0
    endloop
  endfacet
  facet normal -1 0 0
    outer loop
      vertex 0 0 0
      vertex 0 34 2
      vertex 0 34 0
    endloop
  endfacet
  facet normal -1 -0 0
    outer loop
      vertex 0 34 2
      vertex 0 0 0
      vertex 0 0 2
    endloop
  endfacet
  facet normal 0 0 1
    outer loop
      vertex 3.46352 4.42658 2
      vertex 12.5 17 2
      vertex 3.46352 29.5734 2
    endloop
  endfacet
  facet normal 0 0 1
    outer loop
      vertex 12.5 17 2
      vertex 3.46352 4.42658 2
      vertex 4.5 3 2
    endloop
  endfacet
  facet normal 0 0 1
    outer loop
      vertex 1.78648 30.1183 2
      vertex 3.46352 4.42658 2
      vertex 3.46352 29.5734 2
    endloop
  endfacet
  facet normal 0 0 1
    outer loop
      vertex 3.46352 4.42658 2
      vertex 1.78648 30.1183 2
      vertex 1.78648 3.88168 2
    endloop
  endfacet
  facet normal -0 0 1
    outer loop
      vertex 92.4635 29.5734 2
      vertex 93.5 3 2
      vertex 93.5 31 2
    endloop
  endfacet
  facet normal 0 0 1
    outer loop
      vertex 92.4635 29.5734 2
      vertex 92.4635 4.42658 2
      vertex 93.5 3 2
    endloop
  endfacet
  facet normal 0 0 1
    outer loop
      vertex 81.7678 18.7678 2
      vertex 92.4635 29.5734 2
      vertex 90.7865 30.1183 2
    endloop
  endfacet
  facet normal 0 0 1
    outer loop
      vertex 92.4635 29.5734 2
      vertex 82.5 17 2
      vertex 92.4635 4.42658 2
    endloop
  endfacet
  facet normal 0 0 1
    outer loop
      vertex 95 34 2
      vertex 93.5 31 2
      vertex 95 0 2
    endloop
  endfacet
  facet normal 0 0 1
    outer loop
      vertex 95 34 2
      vertex 92.4635 32.4266 2
      vertex 93.5 31 2
    endloop
  endfacet
  facet normal 0 0 1
    outer loop
      vertex 95 34 2
      vertex 90.7865 31.8817 2
      vertex 92.4635 32.4266 2
    endloop
  endfacet
  facet normal 0 0 1
    outer loop
      vertex 80 19.5 2
      vertex 90.7865 30.1183 2
      vertex 90.7865 31.8817 2
    endloop
  endfacet
  facet normal -0 0 1
    outer loop
      vertex 81.7678 15.2322 2
      vertex 92.4635 4.42658 2
      vertex 82.5 17 2
    endloop
  endfacet
  facet normal 0 0 1
    outer loop
      vertex 92.4635 4.42658 2
      vertex 81.7678 15.2322 2
      vertex 90.7865 3.88168 2
    endloop
  endfacet
  facet normal 0 0 1
    outer loop
      vertex 92.4635 29.5734 2
      vertex 81.7678 18.7678 2
      vertex 82.5 17 2
    endloop
  endfacet
  facet normal 0 0 1
    outer loop
      vertex 90.7865 30.1183 2
      vertex 80 19.5 2
      vertex 81.7678 18.7678 2
    endloop
  endfacet
  facet normal 0 0 1
    outer loop
      vertex 90.7865 31.8817 2
      vertex 78.2322 18.7678 2
      vertex 80 19.5 2
    endloop
  endfacet
  facet normal 0 0 1
    outer loop
      vertex 78.2322 18.7678 2
      vertex 50 17 2
      vertex 77.5 17 2
    endloop
  endfacet
  facet normal 0 0 1
    outer loop
      vertex 49.2678 18.7678 2
      vertex 78.2322 18.7678 2
      vertex 90.7865 31.8817 2
    endloop
  endfacet
  facet normal -0 0 1
    outer loop
      vertex 3.46352 32.4266 2
      vertex 90.7865 31.8817 2
      vertex 95 34 2
    endloop
  endfacet
  facet normal 0 0 1
    outer loop
      vertex 78.2322 18.7678 2
      vertex 49.2678 18.7678 2
      vertex 50 17 2
    endloop
  endfacet
  facet normal 0 0 1
    outer loop
      vertex 90.7865 31.8817 2
      vertex 47.5 19.5 2
      vertex 49.2678 18.7678 2
    endloop
  endfacet
  facet normal 0 0 1
    outer loop
      vertex 45.7322 18.7678 2
      vertex 17.5 17 2
      vertex 45 17 2
    endloop
  endfacet
  facet normal 0 0 1
    outer loop
      vertex 4.5 31 2
      vertex 45.7322 18.7678 2
      vertex 47.5 19.5 2
    endloop
  endfacet
  facet normal 0 0 1
    outer loop
      vertex 90.7865 31.8817 2
      vertex 3.46352 32.4266 2
      vertex 47.5 19.5 2
    endloop
  endfacet
  facet normal 0 0 1
    outer loop
      vertex 45.7322 18.7678 2
      vertex 16.7678 18.7678 2
      vertex 17.5 17 2
    endloop
  endfacet
  facet normal 0 0 1
    outer loop
      vertex 45.7322 18.7678 2
      vertex 4.5 31 2
      vertex 16.7678 18.7678 2
    endloop
  endfacet
  facet normal -0 0 1
    outer loop
      vertex 3.46352 29.5734 2
      vertex 13.2322 18.7678 2
      vertex 4.5 31 2
    endloop
  endfacet
  facet normal 0 0 1
    outer loop
      vertex 15 19.5 2
      vertex 4.5 31 2
      vertex 13.2322 18.7678 2
    endloop
  endfacet
  facet normal 0 0 1
    outer loop
      vertex 16.7678 18.7678 2
      vertex 4.5 31 2
      vertex 15 19.5 2
    endloop
  endfacet
  facet normal 0 0 1
    outer loop
      vertex 47.5 19.5 2
      vertex 3.46352 32.4266 2
      vertex 4.5 31 2
    endloop
  endfacet
  facet normal 0 0 1
    outer loop
      vertex 0 34 2
      vertex 1.78648 30.1183 2
      vertex 1.78648 31.8817 2
    endloop
  endfacet
  facet normal 0 0 1
    outer loop
      vertex 1.78648 30.1183 2
      vertex 0 34 2
      vertex 1.78648 3.88168 2
    endloop
  endfacet
  facet normal 0 0 1
    outer loop
      vertex 0 0 2
      vertex 1.78648 3.88168 2
      vertex 0 34 2
    endloop
  endfacet
  facet normal 0 0 1
    outer loop
      vertex 3.46352 32.4266 2
      vertex 0 34 2
      vertex 1.78648 31.8817 2
    endloop
  endfacet
  facet normal -0 0 1
    outer loop
      vertex 0 34 2
      vertex 3.46352 32.4266 2
      vertex 95 34 2
    endloop
  endfacet
  facet normal -0 0 1
    outer loop
      vertex 93.5 3 2
      vertex 95 0 2
      vertex 93.5 31 2
    endloop
  endfacet
  facet normal -0 0 1
    outer loop
      vertex 92.4635 1.57342 2
      vertex 95 0 2
      vertex 93.5 3 2
    endloop
  endfacet
  facet normal 0 0 1
    outer loop
      vertex 90.7865 2.11832 2
      vertex 95 0 2
      vertex 92.4635 1.57342 2
    endloop
  endfacet
  facet normal -0 0 1
    outer loop
      vertex 80 14.5 2
      vertex 90.7865 3.88168 2
      vertex 81.7678 15.2322 2
    endloop
  endfacet
  facet normal 0 0 1
    outer loop
      vertex 90.7865 3.88168 2
      vertex 80 14.5 2
      vertex 90.7865 2.11832 2
    endloop
  endfacet
  facet normal 0 0 1
    outer loop
      vertex 78.2322 15.2322 2
      vertex 90.7865 2.11832 2
      vertex 80 14.5 2
    endloop
  endfacet
  facet normal -0 0 1
    outer loop
      vertex 50 17 2
      vertex 78.2322 15.2322 2
      vertex 77.5 17 2
    endloop
  endfacet
  facet normal 0 0 1
    outer loop
      vertex 49.2678 15.2322 2
      vertex 78.2322 15.2322 2
      vertex 50 17 2
    endloop
  endfacet
  facet normal 0 0 1
    outer loop
      vertex 78.2322 15.2322 2
      vertex 49.2678 15.2322 2
      vertex 90.7865 2.11832 2
    endloop
  endfacet
  facet normal -0 0 1
    outer loop
      vertex 47.5 14.5 2
      vertex 90.7865 2.11832 2
      vertex 49.2678 15.2322 2
    endloop
  endfacet
  facet normal 0 0 1
    outer loop
      vertex 3.46352 1.57342 2
      vertex 90.7865 2.11832 2
      vertex 47.5 14.5 2
    endloop
  endfacet
  facet normal -0 0 1
    outer loop
      vertex 17.5 17 2
      vertex 45.7322 15.2322 2
      vertex 45 17 2
    endloop
  endfacet
  facet normal 0 0 1
    outer loop
      vertex 16.7678 15.2322 2
      vertex 45.7322 15.2322 2
      vertex 17.5 17 2
    endloop
  endfacet
  facet normal 0 0 1
    outer loop
      vertex 4.5 3 2
      vertex 45.7322 15.2322 2
      vertex 16.7678 15.2322 2
    endloop
  endfacet
  facet normal 0 0 1
    outer loop
      vertex 45.7322 15.2322 2
      vertex 4.5 3 2
      vertex 47.5 14.5 2
    endloop
  endfacet
  facet normal 0 0 1
    outer loop
      vertex 4.5 3 2
      vertex 16.7678 15.2322 2
      vertex 15 14.5 2
    endloop
  endfacet
  facet normal 0 0 1
    outer loop
      vertex 13.2322 18.7678 2
      vertex 3.46352 29.5734 2
      vertex 12.5 17 2
    endloop
  endfacet
  facet normal 0 0 1
    outer loop
      vertex 12.5 17 2
      vertex 4.5 3 2
      vertex 13.2322 15.2322 2
    endloop
  endfacet
  facet normal 0 0 1
    outer loop
      vertex 4.5 3 2
      vertex 15 14.5 2
      vertex 13.2322 15.2322 2
    endloop
  endfacet
  facet normal 0 0 1
    outer loop
      vertex 3.46352 1.57342 2
      vertex 47.5 14.5 2
      vertex 4.5 3 2
    endloop
  endfacet
  facet normal 0 0 1
    outer loop
      vertex 90.7865 2.11832 2
      vertex 3.46352 1.57342 2
      vertex 95 0 2
    endloop
  endfacet
  facet normal 0 0 1
    outer loop
      vertex 3.46352 1.57342 2
      vertex 0 0 2
      vertex 95 0 2
    endloop
  endfacet
  facet normal 0 0 1
    outer loop
      vertex 1.78648 2.11832 2
      vertex 0 0 2
      vertex 3.46352 1.57342 2
    endloop
  endfacet
  facet normal 0 0 1
    outer loop
      vertex 1.78648 3.88168 2
      vertex 0 0 2
      vertex 1.78648 2.11832 2
    endloop
  endfacet
  facet normal 1 -0 0
    outer loop
      vertex 95 0 2
      vertex 95 34 0
      vertex 95 34 2
    endloop
  endfacet
  facet normal 1 0 0
    outer loop
      vertex 95 34 0
      vertex 95 0 2
      vertex 95 0 0
    endloop
  endfacet
  facet normal 0 0 -1
    outer loop
      vertex 95 0 0
      vertex 82.5 17 0
      vertex 95 34 0
    endloop
  endfacet
  facet normal 0 0 -1
    outer loop
      vertex 95 0 0
      vertex 81.7678 15.2322 0
      vertex 82.5 17 0
    endloop
  endfacet
  facet normal 0 0 -1
    outer loop
      vertex 95 0 0
      vertex 80 14.5 0
      vertex 81.7678 15.2322 0
    endloop
  endfacet
  facet normal 0 0 -1
    outer loop
      vertex 95 0 0
      vertex 78.2322 15.2322 0
      vertex 80 14.5 0
    endloop
  endfacet
  facet normal 0 0 -1
    outer loop
      vertex 78.2322 15.2322 0
      vertex 50 17 0
      vertex 77.5 17 0
    endloop
  endfacet
  facet normal 0 0 -1
    outer loop
      vertex 49.2678 15.2322 0
      vertex 78.2322 15.2322 0
      vertex 95 0 0
    endloop
  endfacet
  facet normal 0 0 -1
    outer loop
      vertex 78.2322 15.2322 0
      vertex 49.2678 15.2322 0
      vertex 50 17 0
    endloop
  endfacet
  facet normal 0 0 -1
    outer loop
      vertex 95 0 0
      vertex 47.5 14.5 0
      vertex 49.2678 15.2322 0
    endloop
  endfacet
  facet normal 0 0 -1
    outer loop
      vertex 45.7322 15.2322 0
      vertex 17.5 17 0
      vertex 45 17 0
    endloop
  endfacet
  facet normal 0 0 -1
    outer loop
      vertex 0 0 0
      vertex 45.7322 15.2322 0
      vertex 47.5 14.5 0
    endloop
  endfacet
  facet normal 0 0 -1
    outer loop
      vertex 0 0 0
      vertex 47.5 14.5 0
      vertex 95 0 0
    endloop
  endfacet
  facet normal 0 0 -1
    outer loop
      vertex 45.7322 15.2322 0
      vertex 16.7678 15.2322 0
      vertex 17.5 17 0
    endloop
  endfacet
  facet normal -0 0 -1
    outer loop
      vertex 45.7322 15.2322 0
      vertex 0 0 0
      vertex 16.7678 15.2322 0
    endloop
  endfacet
  facet normal -0 0 -1
    outer loop
      vertex 13.2322 15.2322 0
      vertex 0 0 0
      vertex 12.5 17 0
    endloop
  endfacet
  facet normal -0 0 -1
    outer loop
      vertex 15 14.5 0
      vertex 0 0 0
      vertex 13.2322 15.2322 0
    endloop
  endfacet
  facet normal 0 0 -1
    outer loop
      vertex 16.7678 15.2322 0
      vertex 0 0 0
      vertex 15 14.5 0
    endloop
  endfacet
  facet normal 0 0 -1
    outer loop
      vertex 81.7678 18.7678 0
      vertex 95 34 0
      vertex 82.5 17 0
    endloop
  endfacet
  facet normal 0 0 -1
    outer loop
      vertex 80 19.5 0
      vertex 95 34 0
      vertex 81.7678 18.7678 0
    endloop
  endfacet
  facet normal 0 0 -1
    outer loop
      vertex 78.2322 18.7678 0
      vertex 95 34 0
      vertex 80 19.5 0
    endloop
  endfacet
  facet normal 0 0 -1
    outer loop
      vertex 50 17 0
      vertex 78.2322 18.7678 0
      vertex 77.5 17 0
    endloop
  endfacet
  facet normal 0 0 -1
    outer loop
      vertex 49.2678 18.7678 0
      vertex 78.2322 18.7678 0
      vertex 50 17 0
    endloop
  endfacet
  facet normal 0 0 -1
    outer loop
      vertex 78.2322 18.7678 0
      vertex 49.2678 18.7678 0
      vertex 95 34 0
    endloop
  endfacet
  facet normal 0 0 -1
    outer loop
      vertex 47.5 19.5 0
      vertex 95 34 0
      vertex 49.2678 18.7678 0
    endloop
  endfacet
  facet normal 0 0 -1
    outer loop
      vertex 17.5 17 0
      vertex 45.7322 18.7678 0
      vertex 45 17 0
    endloop
  endfacet
  facet normal 0 0 -1
    outer loop
      vertex 16.7678 18.7678 0
      vertex 45.7322 18.7678 0
      vertex 17.5 17 0
    endloop
  endfacet
  facet normal 0 0 -1
    outer loop
      vertex 0 34 0
      vertex 45.7322 18.7678 0
      vertex 16.7678 18.7678 0
    endloop
  endfacet
  facet normal 0 0 -1
    outer loop
      vertex 45.7322 18.7678 0
      vertex 0 34 0
      vertex 47.5 19.5 0
    endloop
  endfacet
  facet normal 0 0 -1
    outer loop
      vertex 0 34 0
      vertex 16.7678 18.7678 0
      vertex 15 19.5 0
    endloop
  endfacet
  facet normal 0 0 -1
    outer loop
      vertex 0 34 0
      vertex 12.5 17 0
      vertex 0 0 0
    endloop
  endfacet
  facet normal 0 0 -1
    outer loop
      vertex 47.5 19.5 0
      vertex 0 34 0
      vertex 95 34 0
    endloop
  endfacet
  facet normal 0 0 -1
    outer loop
      vertex 13.2322 18.7678 0
      vertex 0 34 0
      vertex 15 19.5 0
    endloop
  endfacet
  facet normal 0 0 -1
    outer loop
      vertex 12.5 17 0
      vertex 0 34 0
      vertex 13.2322 18.7678 0
    endloop
  endfacet
  facet normal 0 -1 0
    outer loop
      vertex 0 0 0
      vertex 95 0 2
      vertex 0 0 2
    endloop
  endfacet
  facet normal 0 -1 -0
    outer loop
      vertex 95 0 2
      vertex 0 0 0
      vertex 95 0 0
    endloop
  endfacet
  facet normal 0 1 -0
    outer loop
      vertex 95 34 0
      vertex 0 34 2
      vertex 95 34 2
    endloop
  endfacet
  facet normal 0 1 0
    outer loop
      vertex 0 34 2
      vertex 95 34 0
      vertex 0 34 0
    endloop
  endfacet
  facet normal 0.809017 0.587786 0
    outer loop
      vertex 4.5 3 4.89
      vertex 3.46352 4.42658 2
      vertex 3.46352 4.42658 4.89
    endloop
  endfacet
  facet normal 0.809017 0.587786 0
    outer loop
      vertex 3.46352 4.42658 2
      vertex 4.5 3 4.89
      vertex 4.5 3 2
    endloop
  endfacet
  facet normal -1 0 0
    outer loop
      vertex 1.78648 2.11832 2
      vertex 1.78648 3.88168 4.89
      vertex 1.78648 3.88168 2
    endloop
  endfacet
  facet normal -1 -0 0
    outer loop
      vertex 1.78648 3.88168 4.89
      vertex 1.78648 2.11832 2
      vertex 1.78648 2.11832 4.89
    endloop
  endfacet
  facet normal -0.309017 0.951056 0
    outer loop
      vertex 3.46352 4.42658 2
      vertex 1.78648 3.88168 4.89
      vertex 3.46352 4.42658 4.89
    endloop
  endfacet
  facet normal -0.309017 0.951056 0
    outer loop
      vertex 1.78648 3.88168 4.89
      vertex 3.46352 4.42658 2
      vertex 1.78648 3.88168 2
    endloop
  endfacet
  facet normal 0.809017 -0.587786 0
    outer loop
      vertex 3.46352 1.57342 4.89
      vertex 4.5 3 2
      vertex 4.5 3 4.89
    endloop
  endfacet
  facet normal 0.809017 -0.587786 0
    outer loop
      vertex 4.5 3 2
      vertex 3.46352 1.57342 4.89
      vertex 3.46352 1.57342 2
    endloop
  endfacet
  facet normal -0.309017 -0.951056 0
    outer loop
      vertex 1.78648 2.11832 2
      vertex 3.46352 1.57342 4.89
      vertex 1.78648 2.11832 4.89
    endloop
  endfacet
  facet normal -0.309017 -0.951056 -0
    outer loop
      vertex 3.46352 1.57342 4.89
      vertex 1.78648 2.11832 2
      vertex 3.46352 1.57342 2
    endloop
  endfacet
  facet normal 0.951056 0.309017 0
    outer loop
      vertex 6 3 5.89
      vertex 5.42705 4.76336 4.89
      vertex 5.42705 4.76336 5.89
    endloop
  endfacet
  facet normal 0.951056 0.309017 0
    outer loop
      vertex 5.42705 4.76336 4.89
      vertex 6 3 5.89
      vertex 6 3 4.89
    endloop
  endfacet
  facet normal -0.951056 0.309017 0
    outer loop
      vertex 0 3 4.89
      vertex 0.572949 4.76336 5.89
      vertex 0.572949 4.76336 4.89
    endloop
  endfacet
  facet normal -0.951056 0.309017 0
    outer loop
      vertex 0.572949 4.76336 5.89
      vertex 0 3 4.89
      vertex 0 3 5.89
    endloop
  endfacet
  facet normal 0 -1 0
    outer loop
      vertex 2.07295 0.146831 4.89
      vertex 3.92705 0.146831 5.89
      vertex 2.07295 0.146831 5.89
    endloop
  endfacet
  facet normal 0 -1 -0
    outer loop
      vertex 3.92705 0.146831 5.89
      vertex 2.07295 0.146831 4.89
      vertex 3.92705 0.146831 4.89
    endloop
  endfacet
  facet normal 0 1 -0
    outer loop
      vertex 3.92705 5.85317 4.89
      vertex 2.07295 5.85317 5.89
      vertex 3.92705 5.85317 5.89
    endloop
  endfacet
  facet normal 0 1 0
    outer loop
      vertex 2.07295 5.85317 5.89
      vertex 3.92705 5.85317 4.89
      vertex 2.07295 5.85317 4.89
    endloop
  endfacet
  facet normal 0.587785 0.809017 -0
    outer loop
      vertex 5.42705 4.76336 4.89
      vertex 3.92705 5.85317 5.89
      vertex 5.42705 4.76336 5.89
    endloop
  endfacet
  facet normal 0.587785 0.809017 0
    outer loop
      vertex 3.92705 5.85317 5.89
      vertex 5.42705 4.76336 4.89
      vertex 3.92705 5.85317 4.89
    endloop
  endfacet
  facet normal 0 0 1
    outer loop
      vertex 5.42705 4.76336 5.89
      vertex 5.42705 1.23664 5.89
      vertex 6 3 5.89
    endloop
  endfacet
  facet normal 0 0 1
    outer loop
      vertex 3.92705 5.85317 5.89
      vertex 5.42705 1.23664 5.89
      vertex 5.42705 4.76336 5.89
    endloop
  endfacet
  facet normal 0 0 1
    outer loop
      vertex 3.92705 5.85317 5.89
      vertex 3.92705 0.146831 5.89
      vertex 5.42705 1.23664 5.89
    endloop
  endfacet
  facet normal -0 0 1
    outer loop
      vertex 2.07295 5.85317 5.89
      vertex 3.92705 0.146831 5.89
      vertex 3.92705 5.85317 5.89
    endloop
  endfacet
  facet normal 0 0 1
    outer loop
      vertex 2.07295 5.85317 5.89
      vertex 2.07295 0.146831 5.89
      vertex 3.92705 0.146831 5.89
    endloop
  endfacet
  facet normal -0 0 1
    outer loop
      vertex 0.572949 4.76336 5.89
      vertex 2.07295 0.146831 5.89
      vertex 2.07295 5.85317 5.89
    endloop
  endfacet
  facet normal 0 0 1
    outer loop
      vertex 0.572949 4.76336 5.89
      vertex 0.572949 1.23664 5.89
      vertex 2.07295 0.146831 5.89
    endloop
  endfacet
  facet normal 0 -0 1
    outer loop
      vertex 0.572949 1.23664 5.89
      vertex 0.572949 4.76336 5.89
      vertex 0 3 5.89
    endloop
  endfacet
  facet normal -0.587785 0.809017 0
    outer loop
      vertex 2.07295 5.85317 4.89
      vertex 0.572949 4.76336 5.89
      vertex 2.07295 5.85317 5.89
    endloop
  endfacet
  facet normal -0.587785 0.809017 0
    outer loop
      vertex 0.572949 4.76336 5.89
      vertex 2.07295 5.85317 4.89
      vertex 0.572949 4.76336 4.89
    endloop
  endfacet
  facet normal 0.951056 -0.309017 0
    outer loop
      vertex 5.42705 1.23664 5.89
      vertex 6 3 4.89
      vertex 6 3 5.89
    endloop
  endfacet
  facet normal 0.951056 -0.309017 0
    outer loop
      vertex 6 3 4.89
      vertex 5.42705 1.23664 5.89
      vertex 5.42705 1.23664 4.89
    endloop
  endfacet
  facet normal 0 0 -1
    outer loop
      vertex 4.5 3 4.89
      vertex 6 3 4.89
      vertex 5.42705 1.23664 4.89
    endloop
  endfacet
  facet normal 0 0 -1
    outer loop
      vertex 6 3 4.89
      vertex 4.5 3 4.89
      vertex 5.42705 4.76336 4.89
    endloop
  endfacet
  facet normal 0 0 -1
    outer loop
      vertex 3.46352 1.57342 4.89
      vertex 5.42705 1.23664 4.89
      vertex 3.92705 0.146831 4.89
    endloop
  endfacet
  facet normal 0 0 -1
    outer loop
      vertex 5.42705 1.23664 4.89
      vertex 3.46352 1.57342 4.89
      vertex 4.5 3 4.89
    endloop
  endfacet
  facet normal 0 0 -1
    outer loop
      vertex 2.07295 0.146831 4.89
      vertex 3.46352 1.57342 4.89
      vertex 3.92705 0.146831 4.89
    endloop
  endfacet
  facet normal 0 0 -1
    outer loop
      vertex 2.07295 0.146831 4.89
      vertex 1.78648 2.11832 4.89
      vertex 3.46352 1.57342 4.89
    endloop
  endfacet
  facet normal 0 0 -1
    outer loop
      vertex 0 3 4.89
      vertex 1.78648 2.11832 4.89
      vertex 0.572949 1.23664 4.89
    endloop
  endfacet
  facet normal 0 0 -1
    outer loop
      vertex 0.572949 1.23664 4.89
      vertex 1.78648 2.11832 4.89
      vertex 2.07295 0.146831 4.89
    endloop
  endfacet
  facet normal 0 0 -1
    outer loop
      vertex 3.46352 4.42658 4.89
      vertex 5.42705 4.76336 4.89
      vertex 4.5 3 4.89
    endloop
  endfacet
  facet normal -0 0 -1
    outer loop
      vertex 5.42705 4.76336 4.89
      vertex 3.46352 4.42658 4.89
      vertex 3.92705 5.85317 4.89
    endloop
  endfacet
  facet normal 0 0 -1
    outer loop
      vertex 3.46352 4.42658 4.89
      vertex 2.07295 5.85317 4.89
      vertex 3.92705 5.85317 4.89
    endloop
  endfacet
  facet normal 0 0 -1
    outer loop
      vertex 1.78648 3.88168 4.89
      vertex 2.07295 5.85317 4.89
      vertex 3.46352 4.42658 4.89
    endloop
  endfacet
  facet normal 0 0 -1
    outer loop
      vertex 1.78648 2.11832 4.89
      vertex 0 3 4.89
      vertex 1.78648 3.88168 4.89
    endloop
  endfacet
  facet normal 0 0 -1
    outer loop
      vertex 1.78648 3.88168 4.89
      vertex 0.572949 4.76336 4.89
      vertex 2.07295 5.85317 4.89
    endloop
  endfacet
  facet normal -0 0 -1
    outer loop
      vertex 1.78648 3.88168 4.89
      vertex 0 3 4.89
      vertex 0.572949 4.76336 4.89
    endloop
  endfacet
  facet normal 0.587785 -0.809017 0
    outer loop
      vertex 3.92705 0.146831 4.89
      vertex 5.42705 1.23664 5.89
      vertex 3.92705 0.146831 5.89
    endloop
  endfacet
  facet normal 0.587785 -0.809017 0
    outer loop
      vertex 5.42705 1.23664 5.89
      vertex 3.92705 0.146831 4.89
      vertex 5.42705 1.23664 4.89
    endloop
  endfacet
  facet normal -0.587785 -0.809017 0
    outer loop
      vertex 0.572949 1.23664 4.89
      vertex 2.07295 0.146831 5.89
      vertex 0.572949 1.23664 5.89
    endloop
  endfacet
  facet normal -0.587785 -0.809017 -0
    outer loop
      vertex 2.07295 0.146831 5.89
      vertex 0.572949 1.23664 4.89
      vertex 2.07295 0.146831 4.89
    endloop
  endfacet
  facet normal -0.951056 -0.309017 0
    outer loop
      vertex 0.572949 1.23664 4.89
      vertex 0 3 5.89
      vertex 0 3 4.89
    endloop
  endfacet
  facet normal -0.951056 -0.309017 0
    outer loop
      vertex 0 3 5.89
      vertex 0.572949 1.23664 4.89
      vertex 0.572949 1.23664 5.89
    endloop
  endfacet
  facet normal 0.809016 0.587786 0
    outer loop
      vertex 93.5 3 4.89
      vertex 92.4635 4.42658 2
      vertex 92.4635 4.42658 4.89
    endloop
  endfacet
  facet normal 0.809016 0.587786 0
    outer loop
      vertex 92.4635 4.42658 2
      vertex 93.5 3 4.89
      vertex 93.5 3 2
    endloop
  endfacet
  facet normal -1 0 0
    outer loop
      vertex 90.7865 2.11832 2
      vertex 90.7865 3.88168 4.89
      vertex 90.7865 3.88168 2
    endloop
  endfacet
  facet normal -1 -0 0
    outer loop
      vertex 90.7865 3.88168 4.89
      vertex 90.7865 2.11832 2
      vertex 90.7865 2.11832 4.89
    endloop
  endfacet
  facet normal -0.309017 0.951056 0
    outer loop
      vertex 92.4635 4.42658 2
      vertex 90.7865 3.88168 4.89
      vertex 92.4635 4.42658 4.89
    endloop
  endfacet
  facet normal -0.309017 0.951056 0
    outer loop
      vertex 90.7865 3.88168 4.89
      vertex 92.4635 4.42658 2
      vertex 90.7865 3.88168 2
    endloop
  endfacet
  facet normal -0.309017 -0.951056 0
    outer loop
      vertex 90.7865 2.11832 2
      vertex 92.4635 1.57342 4.89
      vertex 90.7865 2.11832 4.89
    endloop
  endfacet
  facet normal -0.309017 -0.951056 -0
    outer loop
      vertex 92.4635 1.57342 4.89
      vertex 90.7865 2.11832 2
      vertex 92.4635 1.57342 2
    endloop
  endfacet
  facet normal 0.809016 -0.587786 0
    outer loop
      vertex 92.4635 1.57342 4.89
      vertex 93.5 3 2
      vertex 93.5 3 4.89
    endloop
  endfacet
  facet normal 0.809016 -0.587786 0
    outer loop
      vertex 93.5 3 2
      vertex 92.4635 1.57342 4.89
      vertex 92.4635 1.57342 2
    endloop
  endfacet
  facet normal 0.951056 0.309019 0
    outer loop
      vertex 95 3 5.89
      vertex 94.427 4.76336 4.89
      vertex 94.427 4.76336 5.89
    endloop
  endfacet
  facet normal 0.951056 0.309019 0
    outer loop
      vertex 94.427 4.76336 4.89
      vertex 95 3 5.89
      vertex 95 3 4.89
    endloop
  endfacet
  facet normal -0.951056 0.309019 0
    outer loop
      vertex 89 3 4.89
      vertex 89.573 4.76336 5.89
      vertex 89.573 4.76336 4.89
    endloop
  endfacet
  facet normal -0.951056 0.309019 0
    outer loop
      vertex 89.573 4.76336 5.89
      vertex 89 3 4.89
      vertex 89 3 5.89
    endloop
  endfacet
  facet normal 0 -1 0
    outer loop
      vertex 91.073 0.146831 4.89
      vertex 92.927 0.146831 5.89
      vertex 91.073 0.146831 5.89
    endloop
  endfacet
  facet normal 0 -1 -0
    outer loop
      vertex 92.927 0.146831 5.89
      vertex 91.073 0.146831 4.89
      vertex 92.927 0.146831 4.89
    endloop
  endfacet
  facet normal 0 1 -0
    outer loop
      vertex 92.927 5.85317 4.89
      vertex 91.073 5.85317 5.89
      vertex 92.927 5.85317 5.89
    endloop
  endfacet
  facet normal 0 1 0
    outer loop
      vertex 91.073 5.85317 5.89
      vertex 92.927 5.85317 4.89
      vertex 91.073 5.85317 4.89
    endloop
  endfacet
  facet normal 0.587785 0.809017 -0
    outer loop
      vertex 94.427 4.76336 4.89
      vertex 92.927 5.85317 5.89
      vertex 94.427 4.76336 5.89
    endloop
  endfacet
  facet normal 0.587785 0.809017 0
    outer loop
      vertex 92.927 5.85317 5.89
      vertex 94.427 4.76336 4.89
      vertex 92.927 5.85317 4.89
    endloop
  endfacet
  facet normal 0 0 1
    outer loop
      vertex 94.427 4.76336 5.89
      vertex 94.427 1.23664 5.89
      vertex 95 3 5.89
    endloop
  endfacet
  facet normal 0 0 1
    outer loop
      vertex 92.927 5.85317 5.89
      vertex 94.427 1.23664 5.89
      vertex 94.427 4.76336 5.89
    endloop
  endfacet
  facet normal 0 0 1
    outer loop
      vertex 92.927 5.85317 5.89
      vertex 92.927 0.146831 5.89
      vertex 94.427 1.23664 5.89
    endloop
  endfacet
  facet normal -0 0 1
    outer loop
      vertex 91.073 5.85317 5.89
      vertex 92.927 0.146831 5.89
      vertex 92.927 5.85317 5.89
    endloop
  endfacet
  facet normal 0 0 1
    outer loop
      vertex 91.073 5.85317 5.89
      vertex 91.073 0.146831 5.89
      vertex 92.927 0.146831 5.89
    endloop
  endfacet
  facet normal -0 0 1
    outer loop
      vertex 89.573 4.76336 5.89
      vertex 91.073 0.146831 5.89
      vertex 91.073 5.85317 5.89
    endloop
  endfacet
  facet normal 0 0 1
    outer loop
      vertex 89.573 4.76336 5.89
      vertex 89.573 1.23664 5.89
      vertex 91.073 0.146831 5.89
    endloop
  endfacet
  facet normal 0 -0 1
    outer loop
      vertex 89.573 1.23664 5.89
      vertex 89.573 4.76336 5.89
      vertex 89 3 5.89
    endloop
  endfacet
  facet normal -0.587785 0.809017 0
    outer loop
      vertex 91.073 5.85317 4.89
      vertex 89.573 4.76336 5.89
      vertex 91.073 5.85317 5.89
    endloop
  endfacet
  facet normal -0.587785 0.809017 0
    outer loop
      vertex 89.573 4.76336 5.89
      vertex 91.073 5.85317 4.89
      vertex 89.573 4.76336 4.89
    endloop
  endfacet
  facet normal 0.951056 -0.309019 0
    outer loop
      vertex 94.427 1.23664 5.89
      vertex 95 3 4.89
      vertex 95 3 5.89
    endloop
  endfacet
  facet normal 0.951056 -0.309019 0
    outer loop
      vertex 95 3 4.89
      vertex 94.427 1.23664 5.89
      vertex 94.427 1.23664 4.89
    endloop
  endfacet
  facet normal 0 0 -1
    outer loop
      vertex 93.5 3 4.89
      vertex 95 3 4.89
      vertex 94.427 1.23664 4.89
    endloop
  endfacet
  facet normal 0 0 -1
    outer loop
      vertex 95 3 4.89
      vertex 93.5 3 4.89
      vertex 94.427 4.76336 4.89
    endloop
  endfacet
  facet normal 0 0 -1
    outer loop
      vertex 92.4635 1.57342 4.89
      vertex 94.427 1.23664 4.89
      vertex 92.927 0.146831 4.89
    endloop
  endfacet
  facet normal 0 0 -1
    outer loop
      vertex 94.427 1.23664 4.89
      vertex 92.4635 1.57342 4.89
      vertex 93.5 3 4.89
    endloop
  endfacet
  facet normal 0 0 -1
    outer loop
      vertex 91.073 0.146831 4.89
      vertex 92.4635 1.57342 4.89
      vertex 92.927 0.146831 4.89
    endloop
  endfacet
  facet normal 0 0 -1
    outer loop
      vertex 91.073 0.146831 4.89
      vertex 90.7865 2.11832 4.89
      vertex 92.4635 1.57342 4.89
    endloop
  endfacet
  facet normal 0 0 -1
    outer loop
      vertex 89 3 4.89
      vertex 90.7865 2.11832 4.89
      vertex 89.573 1.23664 4.89
    endloop
  endfacet
  facet normal 0 0 -1
    outer loop
      vertex 89.573 1.23664 4.89
      vertex 90.7865 2.11832 4.89
      vertex 91.073 0.146831 4.89
    endloop
  endfacet
  facet normal 0 0 -1
    outer loop
      vertex 92.4635 4.42658 4.89
      vertex 94.427 4.76336 4.89
      vertex 93.5 3 4.89
    endloop
  endfacet
  facet normal -0 0 -1
    outer loop
      vertex 94.427 4.76336 4.89
      vertex 92.4635 4.42658 4.89
      vertex 92.927 5.85317 4.89
    endloop
  endfacet
  facet normal 0 0 -1
    outer loop
      vertex 92.4635 4.42658 4.89
      vertex 91.073 5.85317 4.89
      vertex 92.927 5.85317 4.89
    endloop
  endfacet
  facet normal 0 0 -1
    outer loop
      vertex 90.7865 3.88168 4.89
      vertex 91.073 5.85317 4.89
      vertex 92.4635 4.42658 4.89
    endloop
  endfacet
  facet normal 0 0 -1
    outer loop
      vertex 90.7865 2.11832 4.89
      vertex 89 3 4.89
      vertex 90.7865 3.88168 4.89
    endloop
  endfacet
  facet normal 0 0 -1
    outer loop
      vertex 90.7865 3.88168 4.89
      vertex 89.573 4.76336 4.89
      vertex 91.073 5.85317 4.89
    endloop
  endfacet
  facet normal -0 0 -1
    outer loop
      vertex 90.7865 3.88168 4.89
      vertex 89 3 4.89
      vertex 89.573 4.76336 4.89
    endloop
  endfacet
  facet normal 0.587785 -0.809017 0
    outer loop
      vertex 92.927 0.146831 4.89
      vertex 94.427 1.23664 5.89
      vertex 92.927 0.146831 5.89
    endloop
  endfacet
  facet normal 0.587785 -0.809017 0
    outer loop
      vertex 94.427 1.23664 5.89
      vertex 92.927 0.146831 4.89
      vertex 94.427 1.23664 4.89
    endloop
  endfacet
  facet normal -0.587785 -0.809017 0
    outer loop
      vertex 89.573 1.23664 4.89
      vertex 91.073 0.146831 5.89
      vertex 89.573 1.23664 5.89
    endloop
  endfacet
  facet normal -0.587785 -0.809017 -0
    outer loop
      vertex 91.073 0.146831 5.89
      vertex 89.573 1.23664 4.89
      vertex 91.073 0.146831 4.89
    endloop
  endfacet
  facet normal -0.951056 -0.309019 0
    outer loop
      vertex 89.573 1.23664 4.89
      vertex 89 3 5.89
      vertex 89 3 4.89
    endloop
  endfacet
  facet normal -0.951056 -0.309019 0
    outer loop
      vertex 89 3 5.89
      vertex 89.573 1.23664 4.89
      vertex 89.573 1.23664 5.89
    endloop
  endfacet
  facet normal 0.809016 0.587786 0
    outer loop
      vertex 4.5 31 4.89
      vertex 3.46352 32.4266 2
      vertex 3.46352 32.4266 4.89
    endloop
  endfacet
  facet normal 0.809016 0.587786 0
    outer loop
      vertex 3.46352 32.4266 2
      vertex 4.5 31 4.89
      vertex 4.5 31 2
    endloop
  endfacet
  facet normal -1 0 0
    outer loop
      vertex 1.78648 30.1183 2
      vertex 1.78648 31.8817 4.89
      vertex 1.78648 31.8817 2
    endloop
  endfacet
  facet normal -1 -0 0
    outer loop
      vertex 1.78648 31.8817 4.89
      vertex 1.78648 30.1183 2
      vertex 1.78648 30.1183 4.89
    endloop
  endfacet
  facet normal -0.309016 0.951057 0
    outer loop
      vertex 3.46352 32.4266 2
      vertex 1.78648 31.8817 4.89
      vertex 3.46352 32.4266 4.89
    endloop
  endfacet
  facet normal -0.309016 0.951057 0
    outer loop
      vertex 1.78648 31.8817 4.89
      vertex 3.46352 32.4266 2
      vertex 1.78648 31.8817 2
    endloop
  endfacet
  facet normal -0.309017 -0.951056 0
    outer loop
      vertex 1.78648 30.1183 2
      vertex 3.46352 29.5734 4.89
      vertex 1.78648 30.1183 4.89
    endloop
  endfacet
  facet normal -0.309017 -0.951056 -0
    outer loop
      vertex 3.46352 29.5734 4.89
      vertex 1.78648 30.1183 2
      vertex 3.46352 29.5734 2
    endloop
  endfacet
  facet normal 0.809017 -0.587786 0
    outer loop
      vertex 3.46352 29.5734 4.89
      vertex 4.5 31 2
      vertex 4.5 31 4.89
    endloop
  endfacet
  facet normal 0.809017 -0.587786 0
    outer loop
      vertex 4.5 31 2
      vertex 3.46352 29.5734 4.89
      vertex 3.46352 29.5734 2
    endloop
  endfacet
  facet normal 0.951056 0.309017 0
    outer loop
      vertex 6 31 5.89
      vertex 5.42705 32.7634 4.89
      vertex 5.42705 32.7634 5.89
    endloop
  endfacet
  facet normal 0.951056 0.309017 0
    outer loop
      vertex 5.42705 32.7634 4.89
      vertex 6 31 5.89
      vertex 6 31 4.89
    endloop
  endfacet
  facet normal -0.951056 0.309017 0
    outer loop
      vertex 0 31 4.89
      vertex 0.572949 32.7634 5.89
      vertex 0.572949 32.7634 4.89
    endloop
  endfacet
  facet normal -0.951056 0.309017 0
    outer loop
      vertex 0.572949 32.7634 5.89
      vertex 0 31 4.89
      vertex 0 31 5.89
    endloop
  endfacet
  facet normal 0 -1 0
    outer loop
      vertex 2.07295 28.1468 4.89
      vertex 3.92705 28.1468 5.89
      vertex 2.07295 28.1468 5.89
    endloop
  endfacet
  facet normal 0 -1 -0
    outer loop
      vertex 3.92705 28.1468 5.89
      vertex 2.07295 28.1468 4.89
      vertex 3.92705 28.1468 4.89
    endloop
  endfacet
  facet normal 0 1 -0
    outer loop
      vertex 3.92705 33.8532 4.89
      vertex 2.07295 33.8532 5.89
      vertex 3.92705 33.8532 5.89
    endloop
  endfacet
  facet normal 0 1 0
    outer loop
      vertex 2.07295 33.8532 5.89
      vertex 3.92705 33.8532 4.89
      vertex 2.07295 33.8532 4.89
    endloop
  endfacet
  facet normal 0.587785 0.809017 -0
    outer loop
      vertex 5.42705 32.7634 4.89
      vertex 3.92705 33.8532 5.89
      vertex 5.42705 32.7634 5.89
    endloop
  endfacet
  facet normal 0.587785 0.809017 0
    outer loop
      vertex 3.92705 33.8532 5.89
      vertex 5.42705 32.7634 4.89
      vertex 3.92705 33.8532 4.89
    endloop
  endfacet
  facet normal 0 0 1
    outer loop
      vertex 5.42705 32.7634 5.89
      vertex 5.42705 29.2366 5.89
      vertex 6 31 5.89
    endloop
  endfacet
  facet normal 0 0 1
    outer loop
      vertex 3.92705 33.8532 5.89
      vertex 5.42705 29.2366 5.89
      vertex 5.42705 32.7634 5.89
    endloop
  endfacet
  facet normal 0 0 1
    outer loop
      vertex 3.92705 33.8532 5.89
      vertex 3.92705 28.1468 5.89
      vertex 5.42705 29.2366 5.89
    endloop
  endfacet
  facet normal -0 0 1
    outer loop
      vertex 2.07295 33.8532 5.89
      vertex 3.92705 28.1468 5.89
      vertex 3.92705 33.8532 5.89
    endloop
  endfacet
  facet normal 0 0 1
    outer loop
      vertex 2.07295 33.8532 5.89
      vertex 2.07295 28.1468 5.89
      vertex 3.92705 28.1468 5.89
    endloop
  endfacet
  facet normal -0 0 1
    outer loop
      vertex 0.572949 32.7634 5.89
      vertex 2.07295 28.1468 5.89
      vertex 2.07295 33.8532 5.89
    endloop
  endfacet
  facet normal 0 0 1
    outer loop
      vertex 0.572949 32.7634 5.89
      vertex 0.572949 29.2366 5.89
      vertex 2.07295 28.1468 5.89
    endloop
  endfacet
  facet normal 0 -0 1
    outer loop
      vertex 0.572949 29.2366 5.89
      vertex 0.572949 32.7634 5.89
      vertex 0 31 5.89
    endloop
  endfacet
  facet normal -0.587785 0.809017 0
    outer loop
      vertex 2.07295 33.8532 4.89
      vertex 0.572949 32.7634 5.89
      vertex 2.07295 33.8532 5.89
    endloop
  endfacet
  facet normal -0.587785 0.809017 0
    outer loop
      vertex 0.572949 32.7634 5.89
      vertex 2.07295 33.8532 4.89
      vertex 0.572949 32.7634 4.89
    endloop
  endfacet
  facet normal 0.951056 -0.309017 0
    outer loop
      vertex 5.42705 29.2366 5.89
      vertex 6 31 4.89
      vertex 6 31 5.89
    endloop
  endfacet
  facet normal 0.951056 -0.309017 0
    outer loop
      vertex 6 31 4.89
      vertex 5.42705 29.2366 5.89
      vertex 5.42705 29.2366 4.89
    endloop
  endfacet
  facet normal 0 0 -1
    outer loop
      vertex 4.5 31 4.89
      vertex 6 31 4.89
      vertex 5.42705 29.2366 4.89
    endloop
  endfacet
  facet normal 0 0 -1
    outer loop
      vertex 6 31 4.89
      vertex 4.5 31 4.89
      vertex 5.42705 32.7634 4.89
    endloop
  endfacet
  facet normal 0 0 -1
    outer loop
      vertex 3.46352 29.5734 4.89
      vertex 5.42705 29.2366 4.89
      vertex 3.92705 28.1468 4.89
    endloop
  endfacet
  facet normal 0 0 -1
    outer loop
      vertex 5.42705 29.2366 4.89
      vertex 3.46352 29.5734 4.89
      vertex 4.5 31 4.89
    endloop
  endfacet
  facet normal 0 0 -1
    outer loop
      vertex 2.07295 28.1468 4.89
      vertex 3.46352 29.5734 4.89
      vertex 3.92705 28.1468 4.89
    endloop
  endfacet
  facet normal 0 0 -1
    outer loop
      vertex 2.07295 28.1468 4.89
      vertex 1.78648 30.1183 4.89
      vertex 3.46352 29.5734 4.89
    endloop
  endfacet
  facet normal 0 0 -1
    outer loop
      vertex 0 31 4.89
      vertex 1.78648 30.1183 4.89
      vertex 0.572949 29.2366 4.89
    endloop
  endfacet
  facet normal 0 0 -1
    outer loop
      vertex 0.572949 29.2366 4.89
      vertex 1.78648 30.1183 4.89
      vertex 2.07295 28.1468 4.89
    endloop
  endfacet
  facet normal 0 0 -1
    outer loop
      vertex 3.46352 32.4266 4.89
      vertex 5.42705 32.7634 4.89
      vertex 4.5 31 4.89
    endloop
  endfacet
  facet normal -0 0 -1
    outer loop
      vertex 5.42705 32.7634 4.89
      vertex 3.46352 32.4266 4.89
      vertex 3.92705 33.8532 4.89
    endloop
  endfacet
  facet normal 0 0 -1
    outer loop
      vertex 3.46352 32.4266 4.89
      vertex 2.07295 33.8532 4.89
      vertex 3.92705 33.8532 4.89
    endloop
  endfacet
  facet normal 0 0 -1
    outer loop
      vertex 1.78648 31.8817 4.89
      vertex 2.07295 33.8532 4.89
      vertex 3.46352 32.4266 4.89
    endloop
  endfacet
  facet normal 0 0 -1
    outer loop
      vertex 1.78648 30.1183 4.89
      vertex 0 31 4.89
      vertex 1.78648 31.8817 4.89
    endloop
  endfacet
  facet normal 0 0 -1
    outer loop
      vertex 1.78648 31.8817 4.89
      vertex 0.572949 32.7634 4.89
      vertex 2.07295 33.8532 4.89
    endloop
  endfacet
  facet normal -0 0 -1
    outer loop
      vertex 1.78648 31.8817 4.89
      vertex 0 31 4.89
      vertex 0.572949 32.7634 4.89
    endloop
  endfacet
  facet normal 0.587785 -0.809017 0
    outer loop
      vertex 3.92705 28.1468 4.89
      vertex 5.42705 29.2366 5.89
      vertex 3.92705 28.1468 5.89
    endloop
  endfacet
  facet normal 0.587785 -0.809017 0
    outer loop
      vertex 5.42705 29.2366 5.89
      vertex 3.92705 28.1468 4.89
      vertex 5.42705 29.2366 4.89
    endloop
  endfacet
  facet normal -0.587785 -0.809017 0
    outer loop
      vertex 0.572949 29.2366 4.89
      vertex 2.07295 28.1468 5.89
      vertex 0.572949 29.2366 5.89
    endloop
  endfacet
  facet normal -0.587785 -0.809017 -0
    outer loop
      vertex 2.07295 28.1468 5.89
      vertex 0.572949 29.2366 4.89
      vertex 2.07295 28.1468 4.89
    endloop
  endfacet
  facet normal -0.951056 -0.309017 0
    outer loop
      vertex 0.572949 29.2366 4.89
      vertex 0 31 5.89
      vertex 0 31 4.89
    endloop
  endfacet
  facet normal -0.951056 -0.309017 0
    outer loop
      vertex 0 31 5.89
      vertex 0.572949 29.2366 4.89
      vertex 0.572949 29.2366 5.89
    endloop
  endfacet
  facet normal 0.809016 0.587787 0
    outer loop
      vertex 93.5 31 4.89
      vertex 92.4635 32.4266 2
      vertex 92.4635 32.4266 4.89
    endloop
  endfacet
  facet normal 0.809016 0.587787 0
    outer loop
      vertex 92.4635 32.4266 2
      vertex 93.5 31 4.89
      vertex 93.5 31 2
    endloop
  endfacet
  facet normal -1 0 0
    outer loop
      vertex 90.7865 30.1183 2
      vertex 90.7865 31.8817 4.89
      vertex 90.7865 31.8817 2
    endloop
  endfacet
  facet normal -1 -0 0
    outer loop
      vertex 90.7865 31.8817 4.89
      vertex 90.7865 30.1183 2
      vertex 90.7865 30.1183 4.89
    endloop
  endfacet
  facet normal -0.309016 0.951057 0
    outer loop
      vertex 92.4635 32.4266 2
      vertex 90.7865 31.8817 4.89
      vertex 92.4635 32.4266 4.89
    endloop
  endfacet
  facet normal -0.309016 0.951057 0
    outer loop
      vertex 90.7865 31.8817 4.89
      vertex 92.4635 32.4266 2
      vertex 90.7865 31.8817 2
    endloop
  endfacet
  facet normal -0.309017 -0.951056 0
    outer loop
      vertex 90.7865 30.1183 2
      vertex 92.4635 29.5734 4.89
      vertex 90.7865 30.1183 4.89
    endloop
  endfacet
  facet normal -0.309017 -0.951056 -0
    outer loop
      vertex 92.4635 29.5734 4.89
      vertex 90.7865 30.1183 2
      vertex 92.4635 29.5734 2
    endloop
  endfacet
  facet normal 0.809016 -0.587786 0
    outer loop
      vertex 92.4635 29.5734 4.89
      vertex 93.5 31 2
      vertex 93.5 31 4.89
    endloop
  endfacet
  facet normal 0.809016 -0.587786 0
    outer loop
      vertex 93.5 31 2
      vertex 92.4635 29.5734 4.89
      vertex 92.4635 29.5734 2
    endloop
  endfacet
  facet normal 0.951056 0.309019 0
    outer loop
      vertex 95 31 5.89
      vertex 94.427 32.7634 4.89
      vertex 94.427 32.7634 5.89
    endloop
  endfacet
  facet normal 0.951056 0.309019 0
    outer loop
      vertex 94.427 32.7634 4.89
      vertex 95 31 5.89
      vertex 95 31 4.89
    endloop
  endfacet
  facet normal -0.951056 0.309019 0
    outer loop
      vertex 89 31 4.89
      vertex 89.573 32.7634 5.89
      vertex 89.573 32.7634 4.89
    endloop
  endfacet
  facet normal -0.951056 0.309019 0
    outer loop
      vertex 89.573 32.7634 5.89
      vertex 89 31 4.89
      vertex 89 31 5.89
    endloop
  endfacet
  facet normal 0 -1 0
    outer loop
      vertex 91.073 28.1468 4.89
      vertex 92.927 28.1468 5.89
      vertex 91.073 28.1468 5.89
    endloop
  endfacet
  facet normal 0 -1 -0
    outer loop
      vertex 92.927 28.1468 5.89
      vertex 91.073 28.1468 4.89
      vertex 92.927 28.1468 4.89
    endloop
  endfacet
  facet normal 0 1 -0
    outer loop
      vertex 92.927 33.8532 4.89
      vertex 91.073 33.8532 5.89
      vertex 92.927 33.8532 5.89
    endloop
  endfacet
  facet normal 0 1 0
    outer loop
      vertex 91.073 33.8532 5.89
      vertex 92.927 33.8532 4.89
      vertex 91.073 33.8532 4.89
    endloop
  endfacet
  facet normal 0.587785 0.809017 -0
    outer loop
      vertex 94.427 32.7634 4.89
      vertex 92.927 33.8532 5.89
      vertex 94.427 32.7634 5.89
    endloop
  endfacet
  facet normal 0.587785 0.809017 0
    outer loop
      vertex 92.927 33.8532 5.89
      vertex 94.427 32.7634 4.89
      vertex 92.927 33.8532 4.89
    endloop
  endfacet
  facet normal 0 0 1
    outer loop
      vertex 94.427 32.7634 5.89
      vertex 94.427 29.2366 5.89
      vertex 95 31 5.89
    endloop
  endfacet
  facet normal 0 0 1
    outer loop
      vertex 92.927 33.8532 5.89
      vertex 94.427 29.2366 5.89
      vertex 94.427 32.7634 5.89
    endloop
  endfacet
  facet normal 0 0 1
    outer loop
      vertex 92.927 33.8532 5.89
      vertex 92.927 28.1468 5.89
      vertex 94.427 29.2366 5.89
    endloop
  endfacet
  facet normal -0 0 1
    outer loop
      vertex 91.073 33.8532 5.89
      vertex 92.927 28.1468 5.89
      vertex 92.927 33.8532 5.89
    endloop
  endfacet
  facet normal 0 0 1
    outer loop
      vertex 91.073 33.8532 5.89
      vertex 91.073 28.1468 5.89
      vertex 92.927 28.1468 5.89
    endloop
  endfacet
  facet normal -0 0 1
    outer loop
      vertex 89.573 32.7634 5.89
      vertex 91.073 28.1468 5.89
      vertex 91.073 33.8532 5.89
    endloop
  endfacet
  facet normal 0 0 1
    outer loop
      vertex 89.573 32.7634 5.89
      vertex 89.573 29.2366 5.89
      vertex 91.073 28.1468 5.89
    endloop
  endfacet
  facet normal 0 -0 1
    outer loop
      vertex 89.573 29.2366 5.89
      vertex 89.573 32.7634 5.89
      vertex 89 31 5.89
    endloop
  endfacet
  facet normal -0.587785 0.809017 0
    outer loop
      vertex 91.073 33.8532 4.89
      vertex 89.573 32.7634 5.89
      vertex 91.073 33.8532 5.89
    endloop
  endfacet
  facet normal -0.587785 0.809017 0
    outer loop
      vertex 89.573 32.7634 5.89
      vertex 91.073 33.8532 4.89
      vertex 89.573 32.7634 4.89
    endloop
  endfacet
  facet normal 0.951056 -0.309019 0
    outer loop
      vertex 94.427 29.2366 5.89
      vertex 95 31 4.89
      vertex 95 31 5.89
    endloop
  endfacet
  facet normal 0.951056 -0.309019 0
    outer loop
      vertex 95 31 4.89
      vertex 94.427 29.2366 5.89
      vertex 94.427 29.2366 4.89
    endloop
  endfacet
  facet normal 0 0 -1
    outer loop
      vertex 93.5 31 4.89
      vertex 95 31 4.89
      vertex 94.427 29.2366 4.89
    endloop
  endfacet
  facet normal 0 0 -1
    outer loop
      vertex 95 31 4.89
      vertex 93.5 31 4.89
      vertex 94.427 32.7634 4.89
    endloop
  endfacet
  facet normal 0 0 -1
    outer loop
      vertex 92.4635 29.5734 4.89
      vertex 94.427 29.2366 4.89
      vertex 92.927 28.1468 4.89
    endloop
  endfacet
  facet normal 0 0 -1
    outer loop
      vertex 94.427 29.2366 4.89
      vertex 92.4635 29.5734 4.89
      vertex 93.5 31 4.89
    endloop
  endfacet
  facet normal 0 0 -1
    outer loop
      vertex 91.073 28.1468 4.89
      vertex 92.4635 29.5734 4.89
      vertex 92.927 28.1468 4.89
    endloop
  endfacet
  facet normal 0 0 -1
    outer loop
      vertex 91.073 28.1468 4.89
      vertex 90.7865 30.1183 4.89
      vertex 92.4635 29.5734 4.89
    endloop
  endfacet
  facet normal 0 0 -1
    outer loop
      vertex 89 31 4.89
      vertex 90.7865 30.1183 4.89
      vertex 89.573 29.2366 4.89
    endloop
  endfacet
  facet normal 0 0 -1
    outer loop
      vertex 89.573 29.2366 4.89
      vertex 90.7865 30.1183 4.89
      vertex 91.073 28.1468 4.89
    endloop
  endfacet
  facet normal 0 0 -1
    outer loop
      vertex 92.4635 32.4266 4.89
      vertex 94.427 32.7634 4.89
      vertex 93.5 31 4.89
    endloop
  endfacet
  facet normal -0 0 -1
    outer loop
      vertex 94.427 32.7634 4.89
      vertex 92.4635 32.4266 4.89
      vertex 92.927 33.8532 4.89
    endloop
  endfacet
  facet normal 0 0 -1
    outer loop
      vertex 92.4635 32.4266 4.89
      vertex 91.073 33.8532 4.89
      vertex 92.927 33.8532 4.89
    endloop
  endfacet
  facet normal 0 0 -1
    outer loop
      vertex 90.7865 31.8817 4.89
      vertex 91.073 33.8532 4.89
      vertex 92.4635 32.4266 4.89
    endloop
  endfacet
  facet normal 0 0 -1
    outer loop
      vertex 90.7865 30.1183 4.89
      vertex 89 31 4.89
      vertex 90.7865 31.8817 4.89
    endloop
  endfacet
  facet normal 0 0 -1
    outer loop
      vertex 90.7865 31.8817 4.89
      vertex 89.573 32.7634 4.89
      vertex 91.073 33.8532 4.89
    endloop
  endfacet
  facet normal -0 0 -1
    outer loop
      vertex 90.7865 31.8817 4.89
      vertex 89 31 4.89
      vertex 89.573 32.7634 4.89
    endloop
  endfacet
  facet normal 0.587785 -0.809017 0
    outer loop
      vertex 92.927 28.1468 4.89
      vertex 94.427 29.2366 5.89
      vertex 92.927 28.1468 5.89
    endloop
  endfacet
  facet normal 0.587785 -0.809017 0
    outer loop
      vertex 94.427 29.2366 5.89
      vertex 92.927 28.1468 4.89
      vertex 94.427 29.2366 4.89
    endloop
  endfacet
  facet normal -0.587785 -0.809017 0
    outer loop
      vertex 89.573 29.2366 4.89
      vertex 91.073 28.1468 5.89
      vertex 89.573 29.2366 5.89
    endloop
  endfacet
  facet normal -0.587785 -0.809017 -0
    outer loop
      vertex 91.073 28.1468 5.89
      vertex 89.573 29.2366 4.89
      vertex 91.073 28.1468 4.89
    endloop
  endfacet
  facet normal -0.951056 -0.309019 0
    outer loop
      vertex 89.573 29.2366 4.89
      vertex 89 31 5.89
      vertex 89 31 4.89
    endloop
  endfacet
  facet normal -0.951056 -0.309019 0
    outer loop
      vertex 89 31 5.89
      vertex 89.573 29.2366 4.89
      vertex 89.573 29.2366 5.89
    endloop
  endfacet
endsolid OpenSCAD_Model
